<svg width="48" height="48" viewBox="0 0 48 48" fill="none" xmlns="http://www.w3.org/2000/svg">
<g clip-path="url(#clip0_24_7204)">
<path d="M30 12C30 11.4696 30.2107 10.9609 30.5858 10.5858C30.9609 10.2107 31.4696 10 32 10H36C36.5304 10 37.0391 10.2107 37.4142 10.5858C37.7893 10.9609 38 11.4696 38 12V36H39C39.2652 36 39.5196 36.1054 39.7071 36.2929C39.8946 36.4804 40 36.7348 40 37C40 37.2652 39.8946 37.5196 39.7071 37.7071C39.5196 37.8946 39.2652 38 39 38H9C8.73478 38 8.48043 37.8946 8.29289 37.7071C8.10536 37.5196 8 37.2652 8 37C8 36.7348 8.10536 36.4804 8.29289 36.2929C8.48043 36.1054 8.73478 36 9 36H10V30C10 29.4696 10.2107 28.9609 10.5858 28.5858C10.9609 28.2107 11.4696 28 12 28H16C16.5304 28 17.0391 28.2107 17.4142 28.5858C17.7893 28.9609 18 29.4696 18 30V36H20V22C20 21.4696 20.2107 20.9609 20.5858 20.5858C20.9609 20.2107 21.4696 20 22 20H26C26.5304 20 27.0391 20.2107 27.4142 20.5858C27.7893 20.9609 28 21.4696 28 22V36H30V12Z" fill="#504B48"/>
</g>
<defs>
<clipPath id="clip0_24_7204">
<rect width="32" height="32" fill="white" transform="translate(8 8)"/>
</clipPath>
</defs>
</svg>
