<svg width="48" height="48" viewBox="0 0 48 48" fill="none" xmlns="http://www.w3.org/2000/svg">
<rect width="48" height="48" rx="20" fill="#FF7816"/>
<g clip-path="url(#clip0_24_6760)">
<path d="M30.0002 12C30.0002 11.4696 30.211 10.9609 30.586 10.5858C30.9611 10.2107 31.4698 10 32.0002 10H36.0002C36.5307 10 37.0394 10.2107 37.4145 10.5858C37.7895 10.9609 38.0002 11.4696 38.0002 12V36H39.0002C39.2655 36 39.5198 36.1054 39.7074 36.2929C39.8949 36.4804 40.0002 36.7348 40.0002 37C40.0002 37.2652 39.8949 37.5196 39.7074 37.7071C39.5198 37.8946 39.2655 38 39.0002 38H9.00024C8.73503 38 8.48067 37.8946 8.29314 37.7071C8.1056 37.5196 8.00024 37.2652 8.00024 37C8.00024 36.7348 8.1056 36.4804 8.29314 36.2929C8.48067 36.1054 8.73503 36 9.00024 36H10.0002V30C10.0002 29.4696 10.211 28.9609 10.586 28.5858C10.9611 28.2107 11.4698 28 12.0002 28H16.0002C16.5307 28 17.0394 28.2107 17.4145 28.5858C17.7895 28.9609 18.0002 29.4696 18.0002 30V36H20.0002V22C20.0002 21.4696 20.211 20.9609 20.586 20.5858C20.9611 20.2107 21.4698 20 22.0002 20H26.0002C26.5307 20 27.0394 20.2107 27.4145 20.5858C27.7895 20.9609 28.0002 21.4696 28.0002 22V36H30.0002V12Z" fill="white"/>
</g>
<defs>
<clipPath id="clip0_24_6760">
<rect width="32" height="32" fill="white" transform="translate(8 8)"/>
</clipPath>
</defs>
</svg>
