<svg width="100" height="100" viewBox="0 0 100 100" fill="none" xmlns="http://www.w3.org/2000/svg">
<path fill-rule="evenodd" clip-rule="evenodd" d="M70.9625 10.2875C71.2535 10.5778 71.4844 10.9226 71.642 11.3023C71.7995 11.6819 71.8806 12.089 71.8806 12.5C71.8806 12.911 71.7995 13.3181 71.642 13.6977C71.4844 14.0774 71.2535 14.4222 70.9625 14.7125L35.6687 50L70.9625 85.2875C71.5493 85.8743 71.8789 86.6701 71.8789 87.5C71.8789 88.3298 71.5493 89.1257 70.9625 89.7125C70.3757 90.2993 69.5798 90.6289 68.75 90.6289C67.9202 90.6289 67.1243 90.2993 66.5375 89.7125L29.0375 52.2125C28.7465 51.9222 28.5156 51.5774 28.358 51.1977C28.2005 50.818 28.1194 50.411 28.1194 50C28.1194 49.589 28.2005 49.1819 28.358 48.8023C28.5156 48.4226 28.7465 48.0778 29.0375 47.7875L66.5375 10.2875C66.8278 9.99648 67.1726 9.76559 67.5523 9.60805C67.9319 9.45051 68.339 9.36941 68.75 9.36941C69.161 9.36941 69.5681 9.45051 69.9477 9.60805C70.3274 9.76559 70.6722 9.99648 70.9625 10.2875Z" fill="white"/>
</svg>
