<svg width="16" height="16" viewBox="0 0 16 16" fill="none" xmlns="http://www.w3.org/2000/svg">
<g clip-path="url(#clip0_2083_8)">
<path d="M0.499756 9.90039C0.632364 9.90039 0.759541 9.95307 0.853309 10.0468C0.947077 10.1406 0.999756 10.2678 0.999756 10.4004V12.9004C0.999756 13.1656 1.10511 13.42 1.29265 13.6075C1.48019 13.795 1.73454 13.9004 1.99976 13.9004H13.9998C14.265 13.9004 14.5193 13.795 14.7069 13.6075C14.8944 13.42 14.9998 13.1656 14.9998 12.9004V10.4004C14.9998 10.2678 15.0524 10.1406 15.1462 10.0468C15.24 9.95307 15.3671 9.90039 15.4998 9.90039C15.6324 9.90039 15.7595 9.95307 15.8533 10.0468C15.9471 10.1406 15.9998 10.2678 15.9998 10.4004V12.9004C15.9998 13.4308 15.789 13.9395 15.414 14.3146C15.0389 14.6897 14.5302 14.9004 13.9998 14.9004H1.99976C1.46932 14.9004 0.960615 14.6897 0.585542 14.3146C0.21047 13.9395 -0.000244141 13.4308 -0.000244141 12.9004V10.4004C-0.000244141 10.2678 0.0524343 10.1406 0.146202 10.0468C0.239971 9.95307 0.367148 9.90039 0.499756 9.90039Z" fill="#827E7C"/>
<path d="M7.64566 11.854C7.6921 11.9006 7.74728 11.9375 7.80802 11.9627C7.86877 11.9879 7.93389 12.0009 7.99966 12.0009C8.06542 12.0009 8.13054 11.9879 8.19129 11.9627C8.25203 11.9375 8.30721 11.9006 8.35366 11.854L11.3537 8.854C11.4475 8.76011 11.5003 8.63278 11.5003 8.5C11.5003 8.36723 11.4475 8.23989 11.3537 8.146C11.2598 8.05211 11.1324 7.99937 10.9997 7.99937C10.8669 7.99937 10.7395 8.05211 10.6457 8.146L8.49966 10.293V1.5C8.49966 1.36739 8.44698 1.24021 8.35321 1.14645C8.25944 1.05268 8.13226 1 7.99966 1C7.86705 1 7.73987 1.05268 7.6461 1.14645C7.55233 1.24021 7.49966 1.36739 7.49966 1.5V10.293L5.35366 8.146C5.25977 8.05211 5.13243 7.99937 4.99966 7.99937C4.86688 7.99937 4.73954 8.05211 4.64566 8.146C4.55177 8.23989 4.49902 8.36723 4.49902 8.5C4.49902 8.63278 4.55177 8.76011 4.64566 8.854L7.64566 11.854Z" fill="#827E7C"/>
</g>
<defs>
<clipPath id="clip0_2083_8">
<rect width="16" height="16" fill="white"/>
</clipPath>
</defs>
</svg>
