<svg width="24" height="24" viewBox="0 0 24 24" fill="none" xmlns="http://www.w3.org/2000/svg">
<path d="M18.1143 1.9631C17.8043 1.9191 17.4933 2.0221 17.2713 2.2441C17.0423 2.4731 8.2763 11.2391 8.2763 11.2391C8.0893 11.4261 7.9953 11.6921 7.9953 11.9571V14.9551C7.9953 15.5071 8.4433 15.9551 8.9953 15.9551C9.3693 15.9551 11.6183 15.9551 11.9933 15.9551C12.2583 15.9551 12.5243 15.8611 12.7113 15.6741C12.7113 15.6741 21.4793 6.90609 21.7063 6.6791C21.9303 6.4551 22.0333 6.1171 21.9873 5.8041C21.8333 4.7611 21.3923 3.97511 20.7073 3.27511C20.0193 2.57211 19.1793 2.1131 18.1143 1.9631ZM6.99627 2.96212C4.78828 2.96212 2.99829 4.7521 2.99829 6.9601V16.9541C2.99829 19.1621 3.78829 20.9521 5.99629 20.9521H16.9903C19.1983 20.9521 20.9883 19.1621 20.9883 16.9541V10.2081L14.1173 17.0791C13.5453 17.6511 12.7793 17.9541 11.9933 17.9541C11.4783 17.9541 9.5103 17.9541 8.9953 17.9541C7.3393 17.9541 5.99629 16.6111 5.99629 14.9551V11.9571C5.99629 11.1711 6.2683 10.4051 6.8403 9.83308L13.7113 2.96212H6.99627ZM18.2983 4.04812C18.6803 4.16812 18.9853 4.35813 19.2703 4.64913C19.5643 4.94913 19.7683 5.25514 19.8903 5.63314C19.4563 6.06314 18.9763 6.53011 18.4723 7.03011L16.8883 5.44509C17.3963 4.94409 17.8603 4.48012 18.2983 4.04812Z" fill="white"/>
</svg>
