<svg width="48" height="48" viewBox="0 0 48 48" fill="none" xmlns="http://www.w3.org/2000/svg">
<path d="M21 36.9998V29.9898C21 29.4998 21.5 28.9998 22 28.9998H26C26.5 28.9998 27 29.4998 27 29.9998V36.9998C27 37.2651 27.1054 37.5194 27.2929 37.7069C27.4804 37.8945 27.7348 37.9998 28 37.9998H36C36.2652 37.9998 36.5196 37.8945 36.7071 37.7069C36.8946 37.5194 37 37.2651 37 36.9998V22.9998C37.0002 22.8684 36.9746 22.7383 36.9245 22.6168C36.8744 22.4953 36.8008 22.3849 36.708 22.2918L34 19.5858V12.9998C34 12.7346 33.8946 12.4803 33.7071 12.2927C33.5196 12.1052 33.2652 11.9998 33 11.9998H31C30.7348 11.9998 30.4804 12.1052 30.2929 12.2927C30.1054 12.4803 30 12.7346 30 12.9998V15.5858L24.708 10.2918C24.6151 10.1987 24.5048 10.1248 24.3833 10.0744C24.2618 10.024 24.1315 9.99805 24 9.99805C23.8685 9.99805 23.7382 10.024 23.6167 10.0744C23.4952 10.1248 23.3849 10.1987 23.292 10.2918L11.292 22.2918C11.1992 22.3849 11.1256 22.4953 11.0755 22.6168C11.0254 22.7383 10.9998 22.8684 11 22.9998V36.9998C11 37.2651 11.1054 37.5194 11.2929 37.7069C11.4804 37.8945 11.7348 37.9998 12 37.9998H20C20.2652 37.9998 20.5196 37.8945 20.7071 37.7069C20.8946 37.5194 21 37.2651 21 36.9998Z" fill="#504B48"/>
</svg>
