<svg width="32" height="32" viewBox="0 0 32 32" fill="none" xmlns="http://www.w3.org/2000/svg">
<path d="M13 28.9998V21.9898C13 21.4998 13.5 20.9998 14 20.9998H18C18.5 20.9998 19 21.4998 19 21.9998V28.9998C19 29.2651 19.1054 29.5194 19.2929 29.7069C19.4804 29.8945 19.7348 29.9998 20 29.9998H28C28.2652 29.9998 28.5196 29.8945 28.7071 29.7069C28.8946 29.5194 29 29.2651 29 28.9998V14.9998C29.0002 14.8684 28.9746 14.7383 28.9245 14.6168C28.8744 14.4953 28.8008 14.3849 28.708 14.2918L26 11.5858V4.99983C26 4.73462 25.8946 4.48026 25.7071 4.29273C25.5196 4.10519 25.2652 3.99983 25 3.99983H23C22.7348 3.99983 22.4804 4.10519 22.2929 4.29273C22.1054 4.48026 22 4.73462 22 4.99983V7.58583L16.708 2.29183C16.6151 2.19871 16.5048 2.12482 16.3833 2.07441C16.2618 2.024 16.1315 1.99805 16 1.99805C15.8685 1.99805 15.7382 2.024 15.6167 2.07441C15.4952 2.12482 15.3849 2.19871 15.292 2.29183L3.292 14.2918C3.1992 14.3849 3.12564 14.4953 3.07554 14.6168C3.02543 14.7383 2.99977 14.8684 3 14.9998V28.9998C3 29.2651 3.10536 29.5194 3.29289 29.7069C3.48043 29.8945 3.73479 29.9998 4 29.9998H12C12.2652 29.9998 12.5196 29.8945 12.7071 29.7069C12.8946 29.5194 13 29.2651 13 28.9998Z" fill="white"/>
</svg>
