<svg width="32" height="32" viewBox="0 0 32 32" fill="none" xmlns="http://www.w3.org/2000/svg">
<g clip-path="url(#clip0_24_6244)">
<path d="M24.0002 26C24.0002 28.21 21.7602 30 19.0002 30C16.2402 30 14.0002 28.21 14.0002 26C14.0002 23.79 16.2402 22 19.0002 22C21.7602 22 24.0002 23.79 24.0002 26Z" fill="white"/>
<path fill-rule="evenodd" clip-rule="evenodd" d="M24.0002 6V26H22.0002V6H24.0002Z" fill="white"/>
<path d="M22.0002 5.6402C22.0005 5.17801 22.1609 4.73019 22.454 4.37287C22.7472 4.01555 23.155 3.77079 23.6082 3.6802L29.6082 2.4802C29.8983 2.42223 30.1976 2.42931 30.4846 2.50093C30.7715 2.57256 31.0391 2.70695 31.2678 2.89441C31.4966 3.08188 31.681 3.31776 31.8076 3.58506C31.9343 3.85236 32.0001 4.14442 32.0002 4.4402V8.0002L22.0002 10.0002V5.6402Z" fill="white"/>
<path fill-rule="evenodd" clip-rule="evenodd" d="M0.000244141 23C0.000244141 22.7348 0.105601 22.4804 0.293137 22.2929C0.480674 22.1054 0.735028 22 1.00024 22H8.00024C8.26546 22 8.51981 22.1054 8.70735 22.2929C8.89489 22.4804 9.00024 22.7348 9.00024 23C9.00024 23.2652 8.89489 23.5196 8.70735 23.7071C8.51981 23.8946 8.26546 24 8.00024 24H1.00024C0.735028 24 0.480674 23.8946 0.293137 23.7071C0.105601 23.5196 0.000244141 23.2652 0.000244141 23ZM0.000244141 15C0.000244141 14.7348 0.105601 14.4804 0.293137 14.2929C0.480674 14.1054 0.735028 14 1.00024 14H16.0002C16.2655 14 16.5198 14.1054 16.7074 14.2929C16.8949 14.4804 17.0002 14.7348 17.0002 15C17.0002 15.2652 16.8949 15.5196 16.7074 15.7071C16.5198 15.8946 16.2655 16 16.0002 16H1.00024C0.735028 16 0.480674 15.8946 0.293137 15.7071C0.105601 15.5196 0.000244141 15.2652 0.000244141 15ZM0.000244141 7C0.000244141 6.73478 0.105601 6.48043 0.293137 6.29289C0.480674 6.10536 0.735028 6 1.00024 6H16.0002C16.2655 6 16.5198 6.10536 16.7074 6.29289C16.8949 6.48043 17.0002 6.73478 17.0002 7C17.0002 7.26522 16.8949 7.51957 16.7074 7.70711C16.5198 7.89464 16.2655 8 16.0002 8H1.00024C0.735028 8 0.480674 7.89464 0.293137 7.70711C0.105601 7.51957 0.000244141 7.26522 0.000244141 7Z" fill="white"/>
</g>
<defs>
<clipPath id="clip0_24_6244">
<rect width="32" height="32" fill="white"/>
</clipPath>
</defs>
</svg>
