<svg width="32" height="32" viewBox="0 0 32 32" fill="none" xmlns="http://www.w3.org/2000/svg">
<g clip-path="url(#clip0_24_6761)">
<path d="M22.0002 4C22.0002 3.46957 22.211 2.96086 22.586 2.58579C22.9611 2.21071 23.4698 2 24.0002 2H28.0002C28.5307 2 29.0394 2.21071 29.4145 2.58579C29.7895 2.96086 30.0002 3.46957 30.0002 4V28H31.0002C31.2655 28 31.5198 28.1054 31.7074 28.2929C31.8949 28.4804 32.0002 28.7348 32.0002 29C32.0002 29.2652 31.8949 29.5196 31.7074 29.7071C31.5198 29.8946 31.2655 30 31.0002 30H1.00024C0.735028 30 0.480674 29.8946 0.293137 29.7071C0.105601 29.5196 0.000244141 29.2652 0.000244141 29C0.000244141 28.7348 0.105601 28.4804 0.293137 28.2929C0.480674 28.1054 0.735028 28 1.00024 28H2.00024V22C2.00024 21.4696 2.21096 20.9609 2.58603 20.5858C2.9611 20.2107 3.46981 20 4.00024 20H8.00024C8.53068 20 9.03938 20.2107 9.41446 20.5858C9.78953 20.9609 10.0002 21.4696 10.0002 22V28H12.0002V14C12.0002 13.4696 12.211 12.9609 12.586 12.5858C12.9611 12.2107 13.4698 12 14.0002 12H18.0002C18.5307 12 19.0394 12.2107 19.4145 12.5858C19.7895 12.9609 20.0002 13.4696 20.0002 14V28H22.0002V4Z" fill="white"/>
</g>
<defs>
<clipPath id="clip0_24_6761">
<rect width="32" height="32" fill="white"/>
</clipPath>
</defs>
</svg>
