<svg width="120" height="120" viewBox="0 0 120 120" fill="none" xmlns="http://www.w3.org/2000/svg">
<path d="M100.004 119.8H91.6043C97.5044 116.7 105.204 99.3 93.4043 99.8C83.9643 100.2 81.6043 113.3 81.6043 119.8H46.3042C49.1042 101.7 39.4042 94.6 33.3042 100.7C28.4242 105.58 33.2709 115.467 36.3042 119.8H23.8043C18.9709 113.067 9.24424 94.56 9.00424 74.4C8.76424 54.24 18.7709 34.4 23.8043 27C19.5043 25.9 15.2043 19.3 14.9043 16.1C14.6043 12.9 16.5043 5.2 23.8043 5.2C29.6443 5.2 31.6376 14.6 31.9043 19.3C42.7043 5.38 56.4043 0.633333 61.9043 0C58.0643 1.12 54.2376 6.8 52.8043 9.5C56.5643 4.22 64.8376 2.5 68.5043 2.3C64.7443 4.46 63.7376 8 63.7043 9.5C73.3043 9.5 79.6376 13.3 81.6043 15.2C83.4043 10 89.6043 5.5 93.4043 9.5C96.4443 12.7 90.7376 17.3667 87.5043 19.3C89.2643 20.74 93.2376 27.3 95.0043 30.4C98.4043 31.9667 105.884 36.7 108.604 43.1C111.324 49.5 107.471 57.5667 105.204 60.8C118.084 87.52 107.104 111.267 100.004 119.8Z" fill="url(#paint0_radial_1_83)"/>
<path d="M58.4001 96.1C50.0801 96.26 44.4001 86.5 42.6001 81.6C50.2001 81 60.4001 72.7 52.7001 72.5C46.5401 72.34 43.4001 70.3666 42.6001 69.4C43.7201 59.64 48.6001 50.8666 50.9001 47.7C54.9001 49.86 57.1668 47.6 57.8001 46.2C61.5601 47.4 62.7001 46.3 62.8001 45.6C65.5201 46.8 72.5334 63.1666 75.7001 71.2C66.9001 77.5 67.8001 72.6 64.8001 76.8C62.4001 80.16 72.0668 81.4 77.2001 81.6C75.5001 91.6 68.8001 95.9 58.4001 96.1Z" fill="white"/>
<path d="M55.4001 44.1L53.1001 41.3H58.3001L55.4001 44.1Z" fill="white"/>
<ellipse cx="77.2001" cy="36.9" rx="8.4" ry="8.7" fill="white"/>
<ellipse cx="36.2001" cy="41.3" rx="8.4" ry="8.7" fill="white"/>
<defs>
<radialGradient id="paint0_radial_1_83" cx="0" cy="0" r="1" gradientUnits="userSpaceOnUse" gradientTransform="translate(60 21.2) rotate(89.9539) scale(98.6 84.0804)">
<stop offset="0.659978" stop-color="#FF9D56"/>
<stop offset="1" stop-color="#FF7816"/>
</radialGradient>
</defs>
</svg>
