<svg width="32" height="32" viewBox="0 0 32 32" fill="none" xmlns="http://www.w3.org/2000/svg">
<path d="M14.9998 2V16H16.9998V2H14.9998Z" fill="#FF7816"/>
<path d="M5.99975 17.624C5.99947 15.838 6.47754 14.0844 7.38425 12.5457C8.29097 11.007 9.59325 9.73913 11.1557 8.87398L10.1857 7.12598C7.8668 8.41011 6.0383 10.4259 4.9857 12.8587C3.9331 15.2915 3.71564 18.0044 4.36727 20.5738C5.01891 23.1432 6.50296 25.4246 8.58774 27.0617C10.6725 28.6988 13.2407 29.5996 15.8914 29.6234C18.542 29.6472 21.1259 28.7926 23.2398 27.1932C25.3536 25.5937 26.8783 23.3394 27.576 20.7821C28.2736 18.2248 28.1049 15.5084 27.0961 13.0571C26.0873 10.6058 24.2953 8.55751 21.9997 7.23198L20.9977 8.96198C22.5182 9.83935 23.7809 11.1015 24.659 12.6216C25.537 14.1416 25.9994 15.8661 25.9997 17.6215C26.0001 19.3769 25.5383 21.1015 24.6608 22.6219C23.7834 24.1423 22.5211 25.405 21.001 26.2829C19.4809 27.1609 17.7564 27.6232 16.001 27.6234C14.2455 27.6236 12.521 27.1617 11.0006 26.2841C9.48028 25.4066 8.21774 24.1443 7.33989 22.6241C6.46205 21.1039 5.99985 19.3794 5.99975 17.624Z" fill="#FF7816"/>
</svg>
