<svg width="48" height="48" viewBox="0 0 48 48" fill="none" xmlns="http://www.w3.org/2000/svg">
<rect width="48" height="48" rx="20" fill="#FF7816"/>
<g clip-path="url(#clip0_2060_903)">
<path d="M32.0002 34C32.0002 36.21 29.7602 38 27.0002 38C24.2402 38 22.0002 36.21 22.0002 34C22.0002 31.79 24.2402 30 27.0002 30C29.7602 30 32.0002 31.79 32.0002 34Z" fill="white"/>
<path fill-rule="evenodd" clip-rule="evenodd" d="M32.0002 14V34H30.0002V14H32.0002Z" fill="white"/>
<path d="M30.0002 13.6402C30.0005 13.178 30.1609 12.7302 30.454 12.3729C30.7472 12.0155 31.155 11.7708 31.6082 11.6802L37.6082 10.4802C37.8983 10.4222 38.1976 10.4293 38.4846 10.5009C38.7715 10.5726 39.0391 10.7069 39.2678 10.8944C39.4966 11.0819 39.681 11.3178 39.8076 11.5851C39.9343 11.8524 40.0001 12.1444 40.0002 12.4402V16.0002L30.0002 18.0002V13.6402Z" fill="white"/>
<path fill-rule="evenodd" clip-rule="evenodd" d="M8.00024 31C8.00024 30.7348 8.1056 30.4804 8.29314 30.2929C8.48067 30.1054 8.73503 30 9.00024 30H16.0002C16.2655 30 16.5198 30.1054 16.7074 30.2929C16.8949 30.4804 17.0002 30.7348 17.0002 31C17.0002 31.2652 16.8949 31.5196 16.7074 31.7071C16.5198 31.8946 16.2655 32 16.0002 32H9.00024C8.73503 32 8.48067 31.8946 8.29314 31.7071C8.1056 31.5196 8.00024 31.2652 8.00024 31ZM8.00024 23C8.00024 22.7348 8.1056 22.4804 8.29314 22.2929C8.48067 22.1054 8.73503 22 9.00024 22H24.0002C24.2655 22 24.5198 22.1054 24.7074 22.2929C24.8949 22.4804 25.0002 22.7348 25.0002 23C25.0002 23.2652 24.8949 23.5196 24.7074 23.7071C24.5198 23.8946 24.2655 24 24.0002 24H9.00024C8.73503 24 8.48067 23.8946 8.29314 23.7071C8.1056 23.5196 8.00024 23.2652 8.00024 23ZM8.00024 15C8.00024 14.7348 8.1056 14.4804 8.29314 14.2929C8.48067 14.1054 8.73503 14 9.00024 14H24.0002C24.2655 14 24.5198 14.1054 24.7074 14.2929C24.8949 14.4804 25.0002 14.7348 25.0002 15C25.0002 15.2652 24.8949 15.5196 24.7074 15.7071C24.5198 15.8946 24.2655 16 24.0002 16H9.00024C8.73503 16 8.48067 15.8946 8.29314 15.7071C8.1056 15.5196 8.00024 15.2652 8.00024 15Z" fill="white"/>
</g>
<defs>
<clipPath id="clip0_2060_903">
<rect width="32" height="32" fill="white" transform="translate(8 8)"/>
</clipPath>
</defs>
</svg>
