<svg width="65" height="64" viewBox="0 0 65 64" fill="none" xmlns="http://www.w3.org/2000/svg">
<g clip-path="url(#clip0_19_1607)">
<path d="M64.5 32C64.5 40.4869 61.1286 48.6263 55.1274 54.6274C49.1263 60.6286 40.9869 64 32.5 64C24.0131 64 15.8737 60.6286 9.87258 54.6274C3.87142 48.6263 0.5 40.4869 0.5 32C0.5 23.5131 3.87142 15.3737 9.87258 9.37258C15.8737 3.37142 24.0131 0 32.5 0C40.9869 0 49.1263 3.37142 55.1274 9.37258C61.1286 15.3737 64.5 23.5131 64.5 32ZM34.5 18C34.5 17.4696 34.2893 16.9609 33.9142 16.5858C33.5391 16.2107 33.0304 16 32.5 16C31.9696 16 31.4609 16.2107 31.0858 16.5858C30.7107 16.9609 30.5 17.4696 30.5 18V30H18.5C17.9696 30 17.4609 30.2107 17.0858 30.5858C16.7107 30.9609 16.5 31.4696 16.5 32C16.5 32.5304 16.7107 33.0391 17.0858 33.4142C17.4609 33.7893 17.9696 34 18.5 34H30.5V46C30.5 46.5304 30.7107 47.0391 31.0858 47.4142C31.4609 47.7893 31.9696 48 32.5 48C33.0304 48 33.5391 47.7893 33.9142 47.4142C34.2893 47.0391 34.5 46.5304 34.5 46V34H46.5C47.0304 34 47.5391 33.7893 47.9142 33.4142C48.2893 33.0391 48.5 32.5304 48.5 32C48.5 31.4696 48.2893 30.9609 47.9142 30.5858C47.5391 30.2107 47.0304 30 46.5 30H34.5V18Z" fill="#504B48"/>
</g>
<defs>
<clipPath id="clip0_19_1607">
<rect width="64" height="64" fill="white" transform="translate(0.5)"/>
</clipPath>
</defs>
</svg>
