<svg width="48" height="48" viewBox="0 0 48 48" fill="none" xmlns="http://www.w3.org/2000/svg">
<g clip-path="url(#clip0_24_7209)">
<path d="M18 14C18 12.4087 18.6321 10.8826 19.7574 9.75736C20.8826 8.63214 22.4087 8 24 8C25.5913 8 27.1174 8.63214 28.2426 9.75736C29.3679 10.8826 30 12.4087 30 14V24C30 25.5913 29.3679 27.1174 28.2426 28.2426C27.1174 29.3679 25.5913 30 24 30C22.4087 30 20.8826 29.3679 19.7574 28.2426C18.6321 27.1174 18 25.5913 18 24V14Z" fill="#504B48"/>
<path d="M15 21C15.2652 21 15.5196 21.1054 15.7071 21.2929C15.8946 21.4804 16 21.7348 16 22V24C16 26.1217 16.8429 28.1566 18.3431 29.6569C19.8434 31.1571 21.8783 32 24 32C26.1217 32 28.1566 31.1571 29.6569 29.6569C31.1571 28.1566 32 26.1217 32 24V22C32 21.7348 32.1054 21.4804 32.2929 21.2929C32.4804 21.1054 32.7348 21 33 21C33.2652 21 33.5196 21.1054 33.7071 21.2929C33.8946 21.4804 34 21.7348 34 22V24C34 26.4791 33.0792 28.8698 31.4162 30.7083C29.7533 32.5468 27.4666 33.7021 25 33.95V38H31C31.2652 38 31.5196 38.1054 31.7071 38.2929C31.8946 38.4804 32 38.7348 32 39C32 39.2652 31.8946 39.5196 31.7071 39.7071C31.5196 39.8946 31.2652 40 31 40H17C16.7348 40 16.4804 39.8946 16.2929 39.7071C16.1054 39.5196 16 39.2652 16 39C16 38.7348 16.1054 38.4804 16.2929 38.2929C16.4804 38.1054 16.7348 38 17 38H23V33.95C20.5334 33.7021 18.2467 32.5468 16.5838 30.7083C14.9208 28.8698 14 26.4791 14 24V22C14 21.7348 14.1054 21.4804 14.2929 21.2929C14.4804 21.1054 14.7348 21 15 21Z" fill="#504B48"/>
</g>
<defs>
<clipPath id="clip0_24_7209">
<rect width="32" height="32" fill="white" transform="translate(8 8)"/>
</clipPath>
</defs>
</svg>
