<svg width="24" height="24" viewBox="0 0 24 24" fill="none" xmlns="http://www.w3.org/2000/svg">
<path d="M18 6C18 5.80109 17.921 5.61032 17.7803 5.46967C17.6397 5.32902 17.4489 5.25 17.25 5.25C17.0511 5.25 16.8603 5.32902 16.7197 5.46967C16.579 5.61032 16.5 5.80109 16.5 6V10.872L7.0995 5.418C6.2895 4.9485 5.2515 5.517 5.2515 6.462V17.538C5.2515 18.483 6.2895 19.053 7.0995 18.5835L16.5 13.1295V18C16.5 18.1989 16.579 18.3897 16.7197 18.5303C16.8603 18.671 17.0511 18.75 17.25 18.75C17.4489 18.75 17.6397 18.671 17.7803 18.5303C17.921 18.3897 18 18.1989 18 18V6Z" fill="#827E7C"/>
</svg>
