<svg width="48" height="48" viewBox="0 0 48 48" fill="none" xmlns="http://www.w3.org/2000/svg">
<g clip-path="url(#clip0_2060_932)">
<path fill-rule="evenodd" clip-rule="evenodd" d="M30 38C32.1217 38 34.1566 37.1571 35.6569 35.6569C37.1571 34.1566 38 32.1217 38 30C38 27.8783 37.1571 25.8434 35.6569 24.3431C34.1566 22.8429 32.1217 22 30 22C27.8783 22 25.8434 22.8429 24.3431 24.3431C22.8429 25.8434 22 27.8783 22 30C22 32.1217 22.8429 34.1566 24.3431 35.6569C25.8434 37.1571 27.8783 38 30 38ZM40 30C40 32.6522 38.9464 35.1957 37.0711 37.0711C35.1957 38.9464 32.6522 40 30 40C27.3478 40 24.8043 38.9464 22.9289 37.0711C21.0536 35.1957 20 32.6522 20 30C20 27.3478 21.0536 24.8043 22.9289 22.9289C24.8043 21.0536 27.3478 20 30 20C32.6522 20 35.1957 21.0536 37.0711 22.9289C38.9464 24.8043 40 27.3478 40 30Z" fill="#504B48"/>
<path d="M10 8C9.46957 8 8.96086 8.21071 8.58579 8.58579C8.21071 8.96086 8 9.46957 8 10V26C8 26.5304 8.21071 27.0391 8.58579 27.4142C8.96086 27.7893 9.46957 28 10 28H18.166C18.2833 27.3107 18.4553 26.644 18.682 26H14C14 24.9391 13.5786 23.9217 12.8284 23.1716C12.0783 22.4214 11.0609 22 10 22V14C11.0609 14 12.0783 13.5786 12.8284 12.8284C13.5786 12.0783 14 11.0609 14 10H34C34 11.0609 34.4214 12.0783 35.1716 12.8284C35.9217 13.5786 36.9391 14 38 14V21.056C38.76 21.736 39.434 22.512 40 23.364V10C40 9.46957 39.7893 8.96086 39.4142 8.58579C39.0391 8.21071 38.5304 8 38 8H10Z" fill="#504B48"/>
<path d="M27.996 18.1661L28 18.0001C27.9996 17.3112 27.8213 16.6342 27.4824 16.0345C27.1435 15.4348 26.6555 14.9328 26.0657 14.5771C25.4758 14.2214 24.8041 14.024 24.1156 14.0041C23.427 13.9842 22.745 14.1425 22.1356 14.4635C21.5262 14.7846 21.01 15.2575 20.6371 15.8367C20.2641 16.4158 20.047 17.0814 20.0068 17.769C19.9666 18.4567 20.1047 19.143 20.4076 19.7617C20.7106 20.3803 21.1681 20.9102 21.736 21.3001C23.4648 19.6564 25.6442 18.5653 27.996 18.1661Z" fill="#504B48"/>
<path d="M27.8438 32.3999L26.464 29.9628H25.8726V32.3999H24.6182V26.1458H26.9658C27.4496 26.1458 27.8618 26.2324 28.2022 26.4057C28.5427 26.5729 28.7966 26.8029 28.9638 27.0956C29.1371 27.3823 29.2237 27.7049 29.2237 28.0633C29.2237 28.4754 29.1042 28.8488 28.8653 29.1833C28.6263 29.5118 28.2709 29.7388 27.799 29.8642L29.2954 32.3999H27.8438ZM25.8726 29.022H26.921C27.2614 29.022 27.5153 28.9413 27.6826 28.7801C27.8498 28.6128 27.9334 28.3828 27.9334 28.0901C27.9334 27.8034 27.8498 27.5824 27.6826 27.4271C27.5153 27.2658 27.2614 27.1852 26.921 27.1852H25.8726V29.022ZM31.6126 28.1529C31.7739 27.9259 31.9949 27.7377 32.2757 27.5884C32.5624 27.4331 32.8879 27.3554 33.2523 27.3554C33.6764 27.3554 34.0587 27.46 34.3992 27.669C34.7457 27.8781 35.0174 28.1768 35.2146 28.565C35.4177 28.9473 35.5192 29.3923 35.5192 29.9001C35.5192 30.4078 35.4177 30.8588 35.2146 31.253C35.0174 31.6413 34.7457 31.9429 34.3992 32.158C34.0587 32.373 33.6764 32.4805 33.2523 32.4805C32.8879 32.4805 32.5654 32.4059 32.2846 32.2565C32.0099 32.1072 31.7859 31.919 31.6126 31.6921V34.7653H30.3582V27.4361H31.6126V28.1529ZM34.2379 29.9001C34.2379 29.6014 34.1752 29.3445 34.0498 29.1295C33.9303 28.9085 33.769 28.7412 33.5659 28.6277C33.3688 28.5142 33.1538 28.4575 32.9208 28.4575C32.6938 28.4575 32.4788 28.5172 32.2757 28.6367C32.0786 28.7502 31.9173 28.9174 31.7918 29.1385C31.6724 29.3595 31.6126 29.6193 31.6126 29.918C31.6126 30.2166 31.6724 30.4765 31.7918 30.6975C31.9173 30.9185 32.0786 31.0888 32.2757 31.2082C32.4788 31.3217 32.6938 31.3785 32.9208 31.3785C33.1538 31.3785 33.3688 31.3187 33.5659 31.1993C33.769 31.0798 33.9303 30.9096 34.0498 30.6885C34.1752 30.4675 34.2379 30.2047 34.2379 29.9001Z" fill="#504B48"/>
</g>
<defs>
<clipPath id="clip0_2060_932">
<rect width="32" height="32" fill="white" transform="translate(8 8)"/>
</clipPath>
</defs>
</svg>
