<svg width="24" height="24" viewBox="0 0 24 24" fill="none" xmlns="http://www.w3.org/2000/svg">
<g clip-path="url(#clip0_8_750)">
<path d="M17.6124 15.5161C19.0648 13.5342 19.7154 11.0769 19.4338 8.63587C19.1523 6.19486 17.9595 3.95016 16.094 2.35085C14.2286 0.751532 11.828 -0.0844439 9.37265 0.0101658C6.91728 0.104776 4.58817 1.12299 2.8513 2.86111C1.11442 4.59923 0.0978694 6.92907 0.00501667 9.3845C-0.0878361 11.8399 0.749858 14.2399 2.35051 16.1042C3.95115 17.9685 6.19671 19.1598 8.63792 19.4395C11.0791 19.7193 13.536 19.067 15.5169 17.6131H15.5154C15.5594 17.6731 15.6084 17.7306 15.6624 17.7857L21.4374 23.5606C21.7187 23.8421 22.1002 24.0003 22.4981 24.0005C22.896 24.0006 23.2777 23.8427 23.5591 23.5614C23.8406 23.2801 23.9988 22.8986 23.9989 22.5007C23.9991 22.1028 23.8412 21.7211 23.5599 21.4397L17.7849 15.6646C17.7313 15.6103 17.6736 15.5617 17.6124 15.5161ZM17.9994 9.75015C17.9994 10.8336 17.786 11.9064 17.3714 12.9073C16.9568 13.9082 16.3491 14.8177 15.583 15.5838C14.8169 16.3499 13.9075 16.9576 12.9065 17.3722C11.9056 17.7868 10.8328 18.0002 9.74939 18.0002C8.66599 18.0002 7.59319 17.7868 6.59226 17.3722C5.59132 16.9576 4.68185 16.3499 3.91576 15.5838C3.14968 14.8177 2.54199 13.9082 2.12739 12.9073C1.71279 11.9064 1.49939 10.8336 1.49939 9.75015C1.49939 7.56211 2.36859 5.4637 3.91576 3.91652C5.46294 2.36935 7.56136 1.50015 9.74939 1.50015C11.9374 1.50015 14.0358 2.36935 15.583 3.91652C17.1302 5.4637 17.9994 7.56211 17.9994 9.75015Z" fill="#504B48"/>
</g>
<defs>
<clipPath id="clip0_8_750">
<rect width="24" height="24" fill="white"/>
</clipPath>
</defs>
</svg>
