<svg width="60" height="60" viewBox="0 0 60 60" fill="none" xmlns="http://www.w3.org/2000/svg">
<path d="M50.0021 59.9H45.8021C48.7522 58.35 52.6021 49.65 46.7021 49.9C41.9821 50.1 40.8021 56.65 40.8021 59.9H23.1521C24.5521 50.85 19.7021 47.3 16.6521 50.35C14.2121 52.79 16.6354 57.7333 18.1521 59.9H11.9021C9.48547 56.5333 4.62212 47.28 4.50212 37.2C4.38212 27.12 9.38547 17.2 11.9021 13.5C9.75217 12.95 7.60214 9.65 7.45214 8.05C7.30214 6.45 8.25214 2.6 11.9021 2.6C14.8221 2.6 15.8188 7.3 15.9521 9.65C21.3521 2.69 28.2021 0.316667 30.9521 0C29.0321 0.56 27.1188 3.4 26.4021 4.75C28.2821 2.11 32.4188 1.25 34.2521 1.15C32.3721 2.23 31.8688 4 31.8521 4.75C36.6521 4.75 39.8188 6.65 40.8021 7.6C41.7021 5 44.8021 2.75 46.7021 4.75C48.2221 6.35 45.3688 8.68333 43.7521 9.65C44.6321 10.37 46.6188 13.65 47.5021 15.2C49.2021 15.9833 52.9421 18.35 54.3021 21.55C55.6621 24.75 53.7355 28.7833 52.6021 30.4C59.0421 43.76 53.5521 55.6333 50.0021 59.9Z" fill="url(#paint0_radial_1_116)"/>
<path d="M29.1998 48.05C25.0398 48.13 22.1998 43.25 21.2998 40.8C25.0998 40.5 30.1998 36.35 26.3498 36.25C23.2698 36.17 21.6998 35.1834 21.2998 34.7C21.8598 29.82 24.2998 25.4334 25.4498 23.85C27.4498 24.93 28.5831 23.8 28.8998 23.1C30.7798 23.7 31.3498 23.15 31.3998 22.8C32.7598 23.4 36.2665 31.5834 37.8498 35.6C33.4498 38.75 33.8998 36.3 32.3998 38.4C31.1998 40.08 36.0331 40.7 38.5998 40.8C37.7498 45.8 34.3998 47.95 29.1998 48.05Z" fill="white"/>
<path d="M27.6998 22.05L26.5498 20.65H29.1498L27.6998 22.05Z" fill="white"/>
<ellipse cx="38.5999" cy="18.45" rx="4.2" ry="4.35" fill="white"/>
<ellipse cx="18.0999" cy="20.65" rx="4.2" ry="4.35" fill="white"/>
<defs>
<radialGradient id="paint0_radial_1_116" cx="0" cy="0" r="1" gradientUnits="userSpaceOnUse" gradientTransform="translate(30 10.6) rotate(89.9539) scale(49.3 42.0402)">
<stop offset="0.659978" stop-color="#FF9D56"/>
<stop offset="1" stop-color="#FF7816"/>
</radialGradient>
</defs>
</svg>
